Coordinates
version=1
nRows=17
nColumns=38
inDegrees=no

Units are S.I. units (second, meters, Newtons, ...)
If the header above contains a line with 'inDegrees', this indicates whether rotational values are in degrees (yes) or radians (no).

endheader
time	pelvis_tilt	pelvis_list	pelvis_rotation	pelvis_tx	pelvis_ty	pelvis_tz	hip_flexion_r	hip_adduction_r	hip_rotation_r	knee_angle_r	ankle_angle_r	subtalar_angle_r	mtp_angle_r	hip_flexion_l	hip_adduction_l	hip_rotation_l	knee_angle_l	ankle_angle_l	subtalar_angle_l	mtp_angle_l	lumbar_extension	lumbar_bending	lumbar_rotation	arm_flex_r	arm_add_r	arm_rot_r	elbow_flex_r	pro_sup_r	wrist_flex_r	wrist_dev_r	arm_flex_l	arm_add_l	arm_rot_l	elbow_flex_l	pro_sup_l	wrist_flex_l	wrist_dev_l
1.73	2.11101	1.39586	-0.547197	0.89206	1.21255	0.930446	0.249878	0.189916	-0.256637	0.305307	-0.0655984	0	0	-0.182459	-0.235819	-0.347537	0.760696	-0.0118248	0	0	-0.206149	0.15736	0.0724519	0.239366	-0.377343	1.20689	0.400838	0.64833	0	0	0.0102399	-0.167063	0.136317	0.46548	1.46696	0	0
1.74	2.04479	1.39429	-0.481297	0.893323	1.22372	0.929454	0.253036	0.199594	-0.257147	0.313325	-0.075652	0	0	-0.132661	-0.259947	-0.328191	0.832084	-0.0790991	0	0	-0.192414	0.16427	0.0693227	0.2381	-0.384242	1.21619	0.409452	0.646885	0	0	-0.00605393	-0.16575	0.128539	0.47628	1.46987	0	0
1.75	1.99105	1.39219	-0.426788	0.894355	1.23473	0.928543	0.253769	0.208066	-0.257391	0.320374	-0.079493	0	0	-0.0826504	-0.28031	-0.303488	0.902891	-0.147534	0	0	-0.180251	0.170073	0.0659815	0.236873	-0.391951	1.22526	0.419284	0.643804	0	0	-0.0217345	-0.165368	0.122049	0.488345	1.4714	0	0
1.76	1.95954	1.38901	-0.39397	0.895128	1.24548	0.928107	0.250723	0.214864	-0.256848	0.328919	-0.0713843	0	0	-0.03615	-0.296902	-0.276806	0.969465	-0.216077	0	0	-0.172507	0.1748	0.0637809	0.235521	-0.399363	1.22998	0.427968	0.642384	0	0	-0.0347527	-0.165328	0.117021	0.498769	1.47211	0	0
1.77	1.96145	1.38489	-0.394483	0.895749	1.25602	0.928528	0.240718	0.21995	-0.253549	0.337083	-0.0579569	0	0	0.00249578	-0.309289	-0.251835	1.02961	-0.269921	0	0	-0.171722	0.177546	0.0635663	0.233953	-0.405769	1.23234	0.435132	0.64147	0	0	-0.0452593	-0.165419	0.111992	0.507921	1.47288	0	0
1.78	1.99123	1.38824	-0.421533	0.895719	1.26636	0.929023	0.243781	0.203762	-0.279881	0.405751	-0.0214143	0	0	0.0381098	-0.306906	-0.225998	1.08425	-0.292654	0	0	-0.172816	0.171004	0.061619	0.233054	-0.411756	1.23947	0.443603	0.636079	0	0	-0.0581795	-0.166735	0.103736	0.525933	1.47566	0	0
1.79	2.0311	1.37578	-0.458931	0.896698	1.27619	0.931415	0.206965	0.224728	-0.243991	0.349629	-0.0305285	0	0	0.063472	-0.322376	-0.204175	1.13538	-0.283704	0	0	-0.185136	0.176843	0.0654323	0.23195	-0.41414	1.23991	0.446166	0.629911	0	0	-0.0644375	-0.167006	0.0968887	0.536945	1.47992	0	0
1.8	2.07127	1.37823	-0.49402	0.896577	1.28508	0.933	0.195593	0.217371	-0.244963	0.360363	-0.0201882	0	0	0.110587	-0.312332	-0.15969	1.21829	-0.151023	0	0	-0.191351	0.169108	0.0667873	0.229799	-0.415716	1.2391	0.448513	0.625348	0	0	-0.0677865	-0.167214	0.0923188	0.546847	1.48469	0	0
1.81	2.11925	1.35847	-0.545618	0.898284	1.29449	0.937003	0.155109	0.235624	-0.240925	0.340662	-0.0313694	0	0	0.11646	-0.338311	-0.159475	1.23961	-0.193639	0	0	-0.212319	0.177822	0.0817545	0.225933	-0.416389	1.23528	0.449195	0.620741	0	0	-0.0688858	-0.164606	0.0828704	0.553384	1.49561	0	0
1.82	2.16217	1.35947	-0.589047	0.899179	1.30363	0.939169	0.135887	0.232109	-0.234557	0.340474	-0.0249699	0	0	0.147259	-0.334127	-0.140369	1.28706	-0.140641	0	0	-0.219087	0.168109	0.090483	0.218443	-0.413051	1.22721	0.447115	0.618885	0	0	-0.0711362	-0.164526	0.0760238	0.561543	1.5047	0	0
1.83	2.20083	1.36129	-0.628656	0.900105	1.31258	0.941262	0.116832	0.228525	-0.228218	0.337473	-0.0196366	0	0	0.178419	-0.328701	-0.123042	1.32764	-0.0930267	0	0	-0.224141	0.158002	0.100298	0.209312	-0.408275	1.21578	0.44328	0.619097	0	0	-0.0714506	-0.164155	0.0710196	0.567093	1.51447	0	0
1.84	2.28618	1.38294	-0.708626	0.900801	1.3204	0.942645	0.112143	0.202221	-0.216804	0.348568	-0.000990721	0	0	0.218706	-0.305824	-0.118207	1.36299	-0.0616204	0	0	-0.223918	0.124581	0.101161	0.2016	-0.396478	1.20616	0.435446	0.617343	0	0	-0.0677737	-0.170144	0.0718289	0.572495	1.51872	0	0
1.85	2.29367	1.3786	-0.722293	0.901691	1.33066	0.943763	0.0894947	0.207434	-0.209733	0.33941	0.00542496	0	0	0.244512	-0.299708	-0.0937295	1.39449	-0.0200006	0	0	-0.223265	0.124709	0.117728	0.18559	-0.396498	1.18615	0.437605	0.619414	0	0	-0.0713615	-0.166864	0.0667886	0.577804	1.53399	0	0
1.86	2.33571	1.37955	-0.76605	0.902581	1.33914	0.945855	0.067031	0.20365	-0.203062	0.328369	0.00869782	0	0	0.272429	-0.292153	-0.0807114	1.42018	0.00604269	0	0	-0.22829	0.115378	0.130061	0.174559	-0.39126	1.16511	0.434006	0.623493	0	0	-0.0643835	-0.164668	0.0602813	0.573059	1.55013	0	0
1.87	2.37984	1.37987	-0.81194	0.903489	1.34741	0.948	0.0438606	0.199571	-0.196365	0.31625	0.011975	0	0	0.298336	-0.284435	-0.0691714	1.44006	0.0246947	0	0	-0.233938	0.106223	0.142989	0.163863	-0.386034	1.14206	0.430116	0.630602	0	0	-0.0542611	-0.162599	0.0551581	0.563917	1.56708	0	0
1.88	2.4225	1.37985	-0.856014	0.904321	1.3555	0.950041	0.0209709	0.195456	-0.189531	0.303803	0.0152346	0	0	0.323023	-0.276663	-0.0587182	1.45578	0.0390878	0	0	-0.239223	0.0977458	0.156129	0.15321	-0.381582	1.11747	0.427156	0.639698	0	0	-0.0417747	-0.161628	0.0560951	0.551877	1.5708	0	0
1.89	2.46481	1.37992	-0.899367	0.905082	1.36346	0.951927	-0.00103589	0.19077	-0.183884	0.292289	0.0174253	0	0	0.346515	-0.268585	-0.0498442	1.46804	0.0545994	0	0	-0.244004	0.0893702	0.16893	0.142919	-0.377909	1.09237	0.425784	0.647989	0	0	-0.0279288	-0.162503	0.0632705	0.539234	1.5708	0	0
